<svg width="30" height="30" viewBox="0 0 30 30" fill="none" xmlns="http://www.w3.org/2000/svg">
<path fill-rule="evenodd" clip-rule="evenodd" d="M0 15C0 6.72 6.72 0 15 0C23.28 0 30 6.72 30 15C30 23.28 23.28 30 15 30C6.72 30 0 23.28 0 15ZM15 2.45455C8.07489 2.45455 2.45453 8.07491 2.45453 15C2.45453 21.9251 8.07489 27.5455 15 27.5455C21.9251 27.5455 27.5454 21.9251 27.5454 15C27.5454 8.07491 21.9251 2.45455 15 2.45455ZM13.6364 15.6818V8.86364C13.6364 8.11052 14.2469 7.5 15 7.5C15.7531 7.5 16.3636 8.11052 16.3636 8.86364V15.6818C16.3636 16.4349 15.7531 17.0455 15 17.0455C14.2469 17.0455 13.6364 16.4349 13.6364 15.6818ZM13.2956 20.7955C13.2956 19.8541 14.0587 19.0911 15 19.0911H15.0001C15.9415 19.0911 16.7045 19.8541 16.7045 20.7955C16.7045 21.7368 15.9415 22.4999 15.0001 22.4999H15C14.0587 22.4999 13.2956 21.7368 13.2956 20.7955Z" fill="url(#paint0_linear)"/>
<defs>
<linearGradient id="paint0_linear" x1="5.58794e-08" y1="15" x2="30" y2="15" gradientUnits="userSpaceOnUse">
<stop stop-color="#FF6D6D"/>
<stop offset="1" stop-color="#EF4444"/>
</linearGradient>
</defs>
</svg>
